<svg id="Calque_1" data-name="Calque 1" xmlns="http://www.w3.org/2000/svg" viewBox="0 0 888.26 219.63"><defs><style>.cls-1,.cls-2{fill:#fff;}.cls-2{font-size:180px;font-family:Montserrat-Bold, Montserrat;font-weight:700;}</style></defs><title>logo</title><path class="cls-1" d="M54.63,136.43a69.83,69.83,0,1,1,129.31-35.59,71.1,71.1,0,0,1-71.76,68.8H47.72l6.78-11.5A21.07,21.07,0,0,0,54.63,136.43Z" transform="translate(-39 -24.4)"/><path class="cls-1" d="M237.89,215.28a16,16,0,0,1,0-16.48A74.91,74.91,0,0,0,188.55,86.08a1,1,0,0,1-.73-.74A75,75,0,0,0,165.56,45,75,75,0,0,0,39.23,105.17a75,75,0,0,0,11,33.69,16,16,0,0,1,0,16.47l-7,11.57a5,5,0,0,0,1.74,6.82,5.2,5.2,0,0,0,2.56.7H100a1,1,0,0,1,.92.69,76.6,76.6,0,0,0,74.72,59.21h64.73a5,5,0,0,0,5-5,5.3,5.3,0,0,0-.69-2.56ZM58.1,164a.92.92,0,0,1-.78-1.39L58.88,160a25.82,25.82,0,0,0,0-26.78A64.89,64.89,0,1,1,179,100.1,66.06,66.06,0,0,1,112.23,164H58.1Zm117.76,60.73a67.55,67.55,0,0,1-64.67-49.23.93.93,0,0,1,.86-1.17h0a76,76,0,0,0,76.71-73.88V97.32a1.16,1.16,0,0,1,1.3-.91,65,65,0,0,1,39.33,97.06,25.85,25.85,0,0,0,0,26.82l1.56,2.65a.94.94,0,0,1-.78,1.4l-54.31.43Z" transform="translate(-39 -24.4)"/><text class="cls-2" transform="translate(228.75 171.75)">Goosta</text></svg>